<?xml version="1.0" encoding="UTF-8" standalone="no" ?>
<!DOCTYPE svg PUBLIC "-//W3C//DTD SVG 1.1//EN" "http://www.w3.org/Graphics/SVG/1.1/DTD/svg11.dtd">
<svg xmlns="http://www.w3.org/2000/svg" xmlns:xlink="http://www.w3.org/1999/xlink" version="1.1" width="1080" height="1080" viewBox="0 0 1080 1080" xml:space="preserve">
<desc>Created with Fabric.js 5.2.4</desc>
<defs>
</defs>
<g transform="matrix(1 0 0 1 540 540)" id="bc9c1ab3-8f66-44f8-83e4-98c0629359f5"  >
<rect style="stroke: none; stroke-width: 1; stroke-dasharray: none; stroke-linecap: butt; stroke-dashoffset: 0; stroke-linejoin: miter; stroke-miterlimit: 4; fill: rgb(255,255,255); fill-rule: nonzero; opacity: 1; visibility: hidden;" vector-effect="non-scaling-stroke"  x="-540" y="-540" rx="0" ry="0" width="1080" height="1080" />
</g>
<g transform="matrix(1 0 0 1 540 540)" id="5692f7a7-3b9e-42da-bd34-b9ab6e23b319"  >
</g>
<g transform="matrix(8.05 0 0 8.56 408.25 538.82)" clip-path="url(#CLIPPATH_6)"  >
<clipPath id="CLIPPATH_6" >
	<rect transform="matrix(1 0 0 1 0 0)" id="clip0_57_13286" x="-48.88705" y="-61.148" rx="0" ry="0" width="97.7741" height="122.296" />
</clipPath>
<path style="stroke: rgb(31,31,31); stroke-width: 1; stroke-dasharray: none; stroke-linecap: butt; stroke-dashoffset: 0; stroke-linejoin: miter; stroke-miterlimit: 4; fill: rgb(0,0,0); fill-rule: nonzero; opacity: 1;" vector-effect="non-scaling-stroke"  transform=" translate(-48.88, -61.62)" d="M 86.8743 43.1134 C 84.1283 39.3031 77.814 31.4684 68.1144 19.8296 C 63.9039 14.7813 60.2921 10.4962 58.5142 8.39247 C 57.5337 7.232 56.6928 6.23909 56.0288 5.45406 L 54.9707 4.20672 L 54.3967 3.53029 L 54.285 3.36584 L 54.2354 3.34412 L 51.7872 0.467773 L 48.6844 2.95626 C 40.7628 9.30161 34.2747 17.4807 29.9276 26.5969 C 27.2622 32.0207 25.5215 37.3235 24.6093 42.7845 C 24.3704 44.0133 24.1656 45.2761 23.9949 46.5421 C 22.9306 46.4552 21.8477 46.3994 20.7742 46.3745 C 20.6842 46.3683 20.5942 46.3652 20.4732 46.3621 C 16.5419 46.2256 12.6323 46.6941 8.85608 47.7584 L 7.23949 48.2114 L 6.40793 49.6698 C 2.51074 56.5054 0.304608 64.2873 0.0284535 72.1717 C -0.328375 82.4111 2.46109 92.3216 8.09588 100.833 C 13.6097 109.158 21.3978 115.522 30.6195 119.236 L 31.8203 119.72 L 32.1834 119.847 L 32.1989 119.841 C 37.0021 121.585 42.0442 122.559 47.1857 122.736 C 47.769 122.758 48.3492 122.767 48.9295 122.767 C 55.4176 122.767 61.735 121.498 67.7297 118.988 L 67.7731 119.006 L 69.368 118.268 C 77.454 114.529 84.3734 108.652 89.3783 101.27 C 94.526 93.6776 97.4178 84.7941 97.7405 75.5817 C 98.1253 64.5697 94.467 53.6476 86.8712 43.1165 L 86.8743 43.1134 Z M 50.7788 77.2325 C 52.4512 83.5716 52.1223 89.6625 49.8076 95.3624 C 44.0239 89.6532 39.7823 83.3761 37.1945 76.6863 C 34.4236 69.5312 32.7574 62.7235 32.2299 56.4278 C 34.6781 57.2314 36.9276 58.2926 38.9321 59.5989 C 44.6972 63.3565 48.6844 69.2891 50.7788 77.2356 L 50.7788 77.2325 Z M 51.8338 107.92 C 54.2912 109.791 56.8759 111.544 59.5412 113.157 C 55.6161 114.225 51.5669 114.693 47.4711 114.547 C 46.8382 114.526 46.2052 114.488 45.5691 114.436 C 47.9024 112.425 50 110.244 51.8307 107.92 L 51.8338 107.92 Z M 58.6973 75.1442 C 56.066 65.1716 50.9184 57.6317 43.4002 52.7354 C 40.1019 50.5882 36.3443 48.9592 32.2175 47.8949 C 32.2764 47.2092 32.3509 46.5266 32.4378 45.8564 C 32.5123 45.2823 32.5898 44.7548 32.6736 44.2615 C 33.3531 40.7522 34.3647 37.2801 35.6741 33.9445 C 36.1767 32.6661 36.7259 31.3971 37.3093 30.1714 L 37.331 30.128 C 38.2308 28.3066 39.2455 26.4666 40.4401 24.4994 L 40.9086 23.7268 L 40.8931 23.7175 C 43.667 19.3828 46.9902 15.4297 50.7912 11.9452 L 52.2588 13.6797 C 55.6813 17.7352 58.899 21.5703 61.825 25.0796 C 68.4061 32.9733 76.939 43.3399 80.2311 47.9105 C 86.7409 56.9336 89.8779 66.1459 89.5583 75.2994 C 89.3101 82.408 87.2063 89.3398 83.4705 95.3407 C 79.9332 101.028 75.0059 105.788 69.2004 109.139 C 65.9611 107.523 61.2571 104.863 56.2615 100.994 C 60.289 92.967 61.1113 84.2759 58.7004 75.1442 L 58.6973 75.1442 Z M 45.5753 102.648 C 41.8829 107.433 37.4892 110.545 34.9263 112.109 C 34.5105 111.957 34.0947 111.798 33.6851 111.631 L 33.3562 111.5 C 25.7635 108.363 19.3593 103.061 14.8353 96.1599 C 10.212 89.1071 7.92212 80.9093 8.21689 72.451 C 8.42789 66.388 9.93898 60.5949 12.7129 55.2301 C 14.3233 54.8733 15.9647 54.6499 17.6061 54.5661 L 18.0312 54.5568 C 18.8597 54.5382 19.6851 54.5382 20.4701 54.5568 C 21.6243 54.6095 22.7817 54.7305 23.9205 54.9136 C 24.2928 62.6211 26.1855 70.9368 29.5521 79.6372 C 32.7946 88.0118 38.1812 95.7472 45.5722 102.645 L 45.5753 102.648 Z" stroke-linecap="round" />
</g>
<g transform="matrix(8.05 0 0 8.56 819.53 781.83)"  >
<circle style="stroke: rgb(31,31,31); stroke-width: 1; stroke-dasharray: none; stroke-linecap: butt; stroke-dashoffset: 0; stroke-linejoin: miter; stroke-miterlimit: 4; fill: rgb(0,0,0); fill-rule: nonzero; opacity: 1;" vector-effect="non-scaling-stroke"  cx="0" cy="0" r="30" />
</g>
<g transform="matrix(8.05 0 0 8.56 819.53 781.83)"  >
<path style="stroke: none; stroke-width: 1; stroke-dasharray: none; stroke-linecap: butt; stroke-dashoffset: 0; stroke-linejoin: miter; stroke-miterlimit: 4; fill: rgb(255,255,255); fill-rule: evenodd; opacity: 1;" vector-effect="non-scaling-stroke"  transform=" translate(-100, -90)" d="M 86.5 94.5 L 113.5 94.5 L 113.5 100.503 C 113.5 100.896 113.423 101.286 113.273 101.649 C 113.123 102.013 112.903 102.343 112.625 102.621 C 112.347 102.9 112.017 103.121 111.653 103.271 C 111.29 103.422 110.901 103.5 110.507 103.5 L 89.4925 103.5 C 88.6985 103.498 87.9376 103.182 87.3766 102.62 C 86.8157 102.058 86.5004 101.297 86.5 100.503 L 86.5 94.5 Z M 86.5 79.488 C 86.5 77.838 87.8395 76.5 89.4925 76.5 L 110.507 76.5 C 112.16 76.5 113.5 77.85 113.5 79.488 L 113.5 90.012 C 113.5 91.662 112.16 93 110.507 93 L 89.4925 93 C 87.8395 93 86.5 91.65 86.5 90.012 L 86.5 79.488 Z M 89.5 79.5 L 110.5 79.5 L 110.5 84 L 89.5 84 L 89.5 79.5 Z M 89.5 87.7575 C 89.5 87.339 89.821 87 90.2575 87 L 91.7425 87 C 92.161 87 92.5 87.321 92.5 87.7575 L 92.5 89.2425 C 92.5016 89.3424 92.4831 89.4417 92.4456 89.5343 C 92.4081 89.6269 92.3524 89.7111 92.2817 89.7817 C 92.2111 89.8524 92.1269 89.9081 92.0343 89.9456 C 91.9417 89.9831 91.8424 90.0016 91.7425 90 L 90.2575 90 C 90.1576 90.0016 90.0583 89.9831 89.9657 89.9456 C 89.8731 89.9081 89.7889 89.8524 89.7183 89.7817 C 89.6476 89.7111 89.5919 89.6269 89.5544 89.5343 C 89.5169 89.4417 89.4984 89.3424 89.5 89.2425 L 89.5 87.7575 Z M 89.5 98.2575 C 89.5 97.839 89.821 97.5 90.2575 97.5 L 91.7425 97.5 C 92.161 97.5 92.5 97.821 92.5 98.2575 L 92.5 99.7425 C 92.5016 99.8424 92.4831 99.9417 92.4456 100.034 C 92.4081 100.127 92.3524 100.211 92.2817 100.282 C 92.2111 100.352 92.1269 100.408 92.0343 100.446 C 91.9417 100.483 91.8424 100.502 91.7425 100.5 L 90.2575 100.5 C 90.1576 100.502 90.0583 100.483 89.9657 100.446 C 89.8731 100.408 89.7889 100.352 89.7183 100.282 C 89.6476 100.211 89.5919 100.127 89.5544 100.034 C 89.5169 99.9417 89.4984 99.8424 89.5 99.7425 L 89.5 98.2575 Z" stroke-linecap="round" />
</g>
<g transform="matrix(NaN NaN NaN NaN 0 0)"  >
<g style=""   >
</g>
</g>
<g transform="matrix(NaN NaN NaN NaN 0 0)"  >
<g style=""   >
</g>
</g>
</svg>